<svg width="187" height="162" viewBox="0 0 187 162" fill="none" xmlns="http://www.w3.org/2000/svg">
<path d="M72.134 74.5068L3.95 102.231C1.562 103.202 0 105.523 0 108.101V125.922C0 128.501 1.563 130.823 3.953 131.793L72.164 159.483C77.606 161.692 83.695 161.692 89.137 159.483L157.348 131.793C159.738 130.823 161.301 128.501 161.301 125.922V108.101C161.301 105.523 159.739 103.202 157.351 102.231L89.167 74.5068C83.707 72.2868 77.595 72.2868 72.134 74.5068Z" fill="url(#paint0_linear_138_84)"/>
<path d="M160.863 105.832C160.246 104.229 159.004 102.903 157.351 102.231L89.167 74.5068C83.706 72.2868 77.595 72.2868 72.134 74.5068L3.94901 102.231C2.29601 102.903 1.055 104.229 0.436996 105.832C1.055 107.436 2.297 108.763 3.952 109.434L70.353 136.389C76.956 139.069 84.344 139.069 90.947 136.389L157.348 109.434C159.003 108.763 160.246 107.437 160.863 105.832Z" fill="#263238"/>
<path d="M72.134 38.0859L3.95 65.8099C1.562 66.7809 0 69.1019 0 71.6799V89.5009C0 92.0799 1.563 94.4019 3.953 95.3719L72.164 123.061C77.606 125.27 83.695 125.27 89.137 123.061L157.348 95.3719C159.738 94.4019 161.301 92.0799 161.301 89.5009V71.6799C161.301 69.1019 159.739 66.7809 157.351 65.8099L89.167 38.0859C83.707 35.8659 77.595 35.8659 72.134 38.0859Z" fill="url(#paint1_linear_138_84)"/>
<path d="M160.863 69.4109C160.246 67.8079 159.004 66.4819 157.351 65.8099L89.167 38.0859C83.706 35.8659 77.595 35.8659 72.134 38.0859L3.94901 65.8099C2.29601 66.4819 1.055 67.8079 0.436996 69.4109C1.055 71.0149 2.297 72.3419 3.952 73.0129L70.353 99.9679C76.956 102.648 84.344 102.648 90.947 99.9679L157.348 73.0129C159.003 72.3419 160.246 71.0149 160.863 69.4109Z" fill="#263238"/>
<path d="M72.134 1.665L3.95 29.389C1.562 30.36 0 32.681 0 35.259V53.08C0 55.659 1.563 57.981 3.953 58.951L72.164 86.64C77.606 88.849 83.695 88.849 89.137 86.64L157.348 58.951C159.738 57.981 161.301 55.659 161.301 53.08V35.259C161.301 32.681 159.739 30.36 157.351 29.389L89.167 1.665C83.707 -0.555 77.595 -0.555 72.134 1.665Z" fill="url(#paint2_linear_138_84)"/>
<path d="M160.863 32.99C160.246 31.387 159.004 30.061 157.351 29.389L89.167 1.665C83.706 -0.555 77.595 -0.555 72.134 1.665L3.94901 29.389C2.29601 30.061 1.055 31.387 0.436996 32.99C1.055 34.594 2.297 35.921 3.952 36.592L70.353 63.547C76.956 66.227 84.344 66.227 90.947 63.547L157.348 36.592C159.003 35.921 160.246 34.594 160.863 32.99Z" fill="#263238"/>
<path d="M13.384 39.088L47.53 25.204C74.816 14.11 105.355 14.11 132.641 25.204L158.71 35.804C159.68 35.083 160.433 34.113 160.865 32.991C160.248 31.388 159.006 30.062 157.353 29.39L89.169 1.66598C83.708 -0.554024 77.597 -0.554024 72.136 1.66598L3.951 29.39C2.298 30.062 1.057 31.388 0.438995 32.991C1.057 34.595 2.29899 35.922 3.95399 36.593L12.032 39.872C12.446 39.564 12.89 39.289 13.384 39.088Z" fill="#37474F"/>
<path opacity="0.31" d="M161.302 108.101C161.302 107.307 161.139 106.545 160.864 105.832C158.108 123.477 140.242 136.324 126.879 144.162L157.349 131.793C159.739 130.823 161.302 128.501 161.302 125.922V108.101Z" fill="#1565C0"/>
<path opacity="0.31" d="M161.302 71.6748C161.302 70.8808 161.139 70.1188 160.864 69.4058C158.108 87.0498 140.242 99.8988 126.879 107.736L157.349 95.3668C159.739 94.3968 161.302 92.0748 161.302 89.4958V71.6748Z" fill="#1565C0"/>
<path opacity="0.31" d="M161.302 35.2729C161.302 34.4789 161.139 33.7169 160.864 33.0039C158.108 50.6489 140.242 63.4959 126.879 71.3339L157.349 58.9649C159.739 57.9949 161.302 55.6729 161.302 53.0939V35.2729Z" fill="#1565C0"/>
<path d="M86.512 39.6191L112.58 50.2181C116.462 51.7971 119.001 55.5701 119.001 59.7601V144.588C119.001 151.935 126.472 156.92 133.255 154.1L177.293 135.795" stroke="white" stroke-width="3.5933" stroke-miterlimit="10"/>
<path d="M92.418 36.1879C95.706 38.0869 95.724 41.1599 92.464 43.0539C89.197 44.9529 83.892 44.9529 80.603 43.0539C77.315 41.1559 77.297 38.0829 80.564 36.1839C83.825 34.2889 89.13 34.2889 92.418 36.1879Z" fill="white"/>
<path d="M184.399 130.745C187.687 132.643 187.705 135.717 184.438 137.615C181.179 139.509 175.866 139.514 172.577 137.615C169.296 135.721 169.279 132.639 172.538 130.745C175.805 128.846 181.118 128.851 184.399 130.745Z" fill="white"/>
<defs>
<linearGradient id="paint0_linear_138_84" x1="0.0004" y1="116.991" x2="161.302" y2="116.991" gradientUnits="userSpaceOnUse">
<stop stop-color="#82B1FF"/>
<stop offset="1" stop-color="#1565C0"/>
</linearGradient>
<linearGradient id="paint1_linear_138_84" x1="0.0004" y1="80.5698" x2="161.302" y2="80.5698" gradientUnits="userSpaceOnUse">
<stop stop-color="#82B1FF"/>
<stop offset="1" stop-color="#1565C0"/>
</linearGradient>
<linearGradient id="paint2_linear_138_84" x1="0.0004" y1="44.1488" x2="161.302" y2="44.1488" gradientUnits="userSpaceOnUse">
<stop stop-color="#82B1FF"/>
<stop offset="1" stop-color="#1565C0"/>
</linearGradient>
</defs>
</svg>
