<svg class="svg-icon" style="width: 1em; height: 1em;vertical-align: middle;fill: currentColor;overflow: hidden;" viewBox="0 0 1024 1024" version="1.1" xmlns="http://www.w3.org/2000/svg"><path d="M762 476.582l-34 13.375v157.728c0 23.154-14.588 43.8-36.415 51.554l-159.22 56.591a54.78 54.78 0 0 1-36.725 0.002l-159.222-56.593c-21.83-7.754-36.418-28.4-36.418-51.554V491.542l-8.33-3.276c-8.738-3.436-13.036-13.305-9.6-22.042 3.436-8.738 13.305-13.035 22.042-9.6l204.377 80.374c2.604 1.187 4.418 1.187 5.99 0.446 0.226-0.107 95.396-37.545 285.51-112.316 4.014-2.207 4.014-8.05 0.003-10.254l-284.48-111.875c-2.6-1.185-4.423-1.185-6-0.442-0.224 0.106-95.392 37.545-285.504 112.317-4.01 2.204-4.011 8.047 0.002 10.254l17.592 6.917c8.738 3.435 13.036 13.303 9.6 22.041-3.435 8.738-13.303 13.036-22.04 9.6l-18.284-7.188c-31.493-14.82-31.493-58.182-1.032-72.55 0.226-0.106 95.476-37.578 285.752-112.415a39.834 39.834 0 0 1 32.804 0l284.721 111.97c31.492 14.813 31.492 58.174 1.034 72.548-0.058 0.027-6.316 2.492-18.774 7.395 0.402 1.45 0.617 2.977 0.617 4.554v169c0 9.389-7.611 17-17 17s-17-7.611-17-17V476.582z m-68 26.75l-165.594 65.13a39.802 39.802 0 0 1-32.812 0L334 504.913v142.772c0 8.759 5.524 16.576 13.802 19.517l159.23 56.595a20.787 20.787 0 0 0 13.94-0.002l159.229-56.594c8.275-2.94 13.799-10.757 13.799-19.516V503.331z"  /></svg>