<?xml version="1.0" encoding="UTF-8"?><svg id="Layer_0_Image" data-name="Layer 0 Image" xmlns="http://www.w3.org/2000/svg" viewBox="0 0 800 600" x="0px" y="0px" width="800px" height="600px" version="1.1" xmlns:xlink="http://www.w3.org/1999/xlink"><title>1</title><path d="M338.544,332.132l1.419,1.09a5.081,5.081,0,0,0-.912-5.284h1.726c.189-.279.577-.6.524-.816-.449-1.817.376-3.441,1.176-4.808.938-1.605,2.708-2.75,2.037-4.994-.047-.157-.062-.443.024-.5,3.35-2.364,3.612-6.776,6.343-9.549.9-.912,1,.359,1.852.566.309-3.928-.207-8.106,3.409-11.555l1.695-.2c.509-.262.469-.446.08-.773a2.062,2.062,0,0,1-.267-3.194c2.713-2.835,3.778-6.57,5.5-9.911,3.177-6.161,7.009-11.909,10.465-17.885,3.481-6.018,7.167-11.873,11.06-17.625,5.133-7.585,10.092-15.275,15.416-22.743,3.446-4.833,6.919-9.721,10.092-14.793,3.024-4.832,6.9-9.125,10.239-13.767,3.924-5.45,8.427-10.445,12.089-16.118,1.827-2.83,4.646-4.992,6.684-7.816,7.562-10.481,17.061-19.214,26.125-28.332,1.638-1.647,3.216-3.4,6.323-3.368-1.013,2.895-1.977,5.421-4.037,7.444-3.019,2.963-5.99,5.976-8.982,8.968-1.5,1.5-3.313,2.793-4.4,4.543s-2.724,2.93-3.824,4.64c-1.086,1.689-2.608,3.064-3.808,4.745-2.074,2.906-4.725,5.435-7.1,8.149-3.032,3.467-5.158,7.524-8.187,10.972-3.1,3.526-5.67,7.508-8.541,11.236-.926,1.2-2.3,1.975-2.213,3.9.034.75-1.13,1.658-1.9,2.323-2.741,2.374-4.386,5.545-6.338,8.494-2.012,3.04-3.973,6.115-5.991,9.152-5.788,8.711-11.432,17.525-17.452,26.074-3.821,5.428-6.48,11.548-10.519,16.816-.1,2.48-2.984,3.046-3.566,5.419a10.956,10.956,0,0,1-2.674,5.278,12.969,12.969,0,0,0-3.134,3.84,48.593,48.593,0,0,1-2.285,4.868,26.861,26.861,0,0,1-2.976,4.57c-1.234,1.434-1.588,3.311-2.672,4.694-.616.786-.136,2.325-1.483,2.393-1.265.065-1.457.72-1.3,1.682.306,1.84-.922,3.141-1.525,4.635-.828.311-1.773-.33-2.662.515,1.684,3.047-1.341,5.55-1.113,8.527-3.18.544-1.853,3.822-3.29,5.422-1.485,1.655-1.243,4.035-2.575,5.823-2.161,2.9-3.209,6.41-4.735,9.659a99.118,99.118,0,0,1-4.724,9.139c-.742,1.229-.568,1.83.628,2.83-3.724,1.538-1.717,7.162-6.362,8.23.326.519,1.021,1.153.9,1.506-1.113,3.235-1.7,6.659-3.5,9.655-1.451,2.409-2.738,5-2.684,7.832a5.357,5.357,0,0,1-1.278,3.185c-3.211,4.665-3.667,10.175-5.128,15.355-1.157,4.1-2.631,8.078-3.974,12.108-1.656,4.968-3.641,9.825-4.606,15.036-.591,3.189-2.071,6.2-2.861,9.367-.562,2.252-1.827,4.432-1.277,6.873.411,1.824-1.463,2.956-1.276,4.874.068.7-1.313,2.193-.771,3.2.683,1.263-2.255,1.833-.326,2.973-.713,2.282-1.016,4.818-2.231,6.792-2.03,3.294-1.689,7.047-2.707,10.519-1.634,5.58-1.033,11.652-3.285,17.164,1.052,2.528-2.127,4.976-.078,7.645.489.636-.9,1.53-1.068,2.663-.872,6.04-2.391,12.017-1.947,18.17.1,1.343-1.825,2.591-.108,3.9-1.756,1.312-.869,3.2-1,4.842-.128,1.576.528,3.472-.137,4.7-1.662,3.061.812,5.783.164,8.715-.541,2.45.664,5.166-1.077,7.509a1.6,1.6,0,0,0,0,1.528c1.765,1.965,1.139,4.353.932,6.461-.363,3.691,1.537,7.037,1.222,10.684-.038.436.945.961,1.768,1.743.084-3.506,1.088-6.74-.532-10.014a7.352,7.352,0,0,1-.244-3.064c-.018-6.171.121-12.345-.068-18.51-.085-2.788,1.635-5.157,1.2-8.038-.391-2.585-.8-5.558.109-7.845,1-2.532.082-5.2,1.242-7.407,1.256-2.393.128-4.822.715-7.121,1.259-4.931,1-10.106,2.226-14.963,1.014-4.024,1.474-8.154,2.7-12.092.285-.915-1.531-1.424-.023-2.351.9-.555.277-1.957.33-2.972.049-.93,1.364-1.165,1.082-2.2-.317-1.171.911-1.855.988-2.741.218-2.529.517-5,.974-7.517.89-4.906,2.312-9.655,3.4-14.493,2.3-1.52-.016-4.278,1.777-6.188,1.325-1.411.985-3.808,1.441-5.722,1.517-6.368,3.348-12.681,5.451-18.882,1.475-4.352,3.441-8.488,4.069-13.151.267-1.984,1.45-4.016,2.352-5.858,2.613-5.334,3.968-11.067,5.88-16.607.918-2.66,2.351-5.029,3.414-7.584,1.752-4.209,2.615-8.743,5.067-12.729,1.6-2.607,1.5-6.164,4.205-8.288-1.221-2.963,2.03-4.413,2.364-6.991.326-2.52,2.351-4.582,3.12-7.142a37.337,37.337,0,0,1,3.117-6.63c1.155-2.164,2.475-4.24,3.726-6.358h2.467c-.44-1.244-1.421-2.315-.943-3.554.385-.85,1.235-.5,1.793-.832a2.822,2.822,0,0,0,.325-.918,16.348,16.348,0,0,1,3.336-9.688c3.4-4.755,5.358-10.182,8.2-15.175,3.332-5.858,6.9-11.588,10.095-17.5,3.771-6.975,8.542-13.3,12.325-20.257,2.607-4.8,6.007-9.167,9.107-13.69,3.958-5.773,8.185-11.375,11.892-17.3,3.021-4.829,6.653-9.187,9.876-13.854A158.855,158.855,0,0,1,434.361,189.7c3.287-3.806,6.019-8.085,9.058-12.112,3.35-4.437,7.01-8.627,10.327-13.1a80.954,80.954,0,0,1,7.329-8.646q6.876-6.961,13.838-13.837c.586-.582,1.019-1.484,2.244-1.279,1.387,1.293.623,2.727-.5,4,2.493.677,2.746-1.946,4.5-1.92.92.1,1.2,1.115,1.925,1.577-1.728.593.312,1.95-.512,2.594-.883.69-.221,2.172-1.475,2.575.125,1.259,1.615.179,2.088,1.666-1.618,2.091-3.388,4.5-5.292,6.8-1.3,1.565-2.866,2.832-3.8,4.776-.77,1.6-3.173,2.288-2.694,4.736.087.445-.776.478-1.134.72-2.485,1.68-4.786,5.159-6.246,8.8a25.621,25.621,0,0,1-3.376,5.434c-2.195,2.975-4.646,5.77-6.633,8.924a4.01,4.01,0,0,1-1.587,1.2,9.911,9.911,0,0,0-5.335,6.964c-.354,1.652-1.03,2.132-2.979,3.981a22.19,22.19,0,0,0-2.422,3.162c-3.126,4.325-5.741,8.992-8.925,13.239-1.928,2.571-1.715,6.265-4.686,8.139.582,2.419-1.7,3.181-2.664,4.722-2.356,3.765-5.547,7.122-6.721,11.469-.421,1.554-3.084.6-2.251,2.7-2.551,3.459-3.962,7.592-6.432,11.061-.947,1.331-2.725,2.43-2.974,3.963-.475,2.914-4.075,4.2-3.53,7.467-2.929,1.291-2.976,4.248-4.1,6.67-.866,1.871-2.882,2.961-3.224,5.5-.289,2.134-1.907,4.11-3.03,6.1s-2.915,3.63-3.359,6.015c-2.652.469-2.68,3.069-3.576,4.785-.966,1.847-2.507,3.571-2.537,5.8-.024,1.736-3.161,1.379-2.225,3.821.579,1.509-1.107,2.655-1.673,4.007-.546,1.3-.661,3.064-2.828,3.16-.615.028-1.3,1.041-1.75,1.734-1.781,2.753-1.849,6.6-5.309,8.282.225,2-1.641,3.433-1.772,5.039-.427,5.216-3.595,9.178-5.782,13.5-1.62,3.2-1.75,7.195-4.826,9.65.519,2.776-2.088,4.474-2.406,6.93-.373,2.871-2.74,4.875-3.188,7.675s-2.221,5.08-3.04,7.738c-.138.446-.715.758-1.265,1.308,1.353,4.7-3.652,8.249-2.9,13.778,1.026-2.048,1.725-3.444,2.8-5.6.263,4.891-2.53,8.107-3.291,11.906-.749,3.747-2.678,7.315-3.971,11.009s-3.082,7.252-3.967,11.031c-.9,3.86-2.62,7.416-3.487,11.28-.858,3.821-2.247,7.522-3.464,11.472l-2.375.194c-2.159,2.625-.984,6.192-2.527,9.007-.223.407.193,1.225-.066,1.541-2.356,2.873-1.66,6.691-3.134,9.823-1.522,3.235-.788,6.928-2.093,10.239-1.517,3.847-1.6,8.073-2.983,11.984-.717,2.026.351,4.465-1.276,6.35.64,3.143-.653,6.082-1.17,9.062a34.958,34.958,0,0,0-.959,8.038c-2.544,2.02.373,5.515-2.053,7.647-.35.307-.1,1.358-.041,2.059.342,4.472-1,8.728-1.647,13.073-.187,1.263,1.116,2.247.592,3.6-2.082,5.376-.594,11-1.094,16.479a9.922,9.922,0,0,0,1.549,6.255l.783-.646c2.9.742,3.543,3.041,2.875,5.394-.555,1.955-2.7,1.82-4.542,1.6-.923,1.794-1.672,3.906-4.348,3.218-1.515-.39-2.586.528-3.8,1.108-1.3-.721-2.561-1.972-3.884-2.042-2.95-.156-4.337-2.207-5.431-4.2a27.591,27.591,0,0,1-2.315-6.979c-1.584-6.718-.782-13.476-.926-20.212-.145-6.7.009-13.4-.054-20.1-.022-2.4,1.486-4.425,1.2-6.979-.258-2.268-.975-4.869.941-6.953-.706-3.833,1.484-7.334,1.136-11.2-.442-4.911,1.009-9.686,2.084-14.443a16.227,16.227,0,0,1,.58-3.094,5.325,5.325,0,0,0,.357-3.522c-.4-2.193,1.056-3.873,1.334-5.894.283-2.066,1.046-4.159.8-5.994.884-.793,1.831-.212,2.211-1.514-1.762-1.929-.943-4.161-.122-6.66a76.844,76.844,0,0,0,3.3-15.049,22.277,22.277,0,0,1,1.415-4.69c1.392-3.92,2.807-7.828,2.841-12.472l1.927-1.422c.106-1.084-1.071-.919-.6-2.016.827-1.948,1.907-3.886,1.79-6.138a2.7,2.7,0,0,1,.157-.989c.338-.989,3-1.26.915-3,1.871-.75.457-2.871,1.748-4.066.857-.793.95-2.52,1.173-3.646.272-1.364,1.164-2.4,1.309-3.745.285-2.632,3.008-4.608,2.014-7.4.463-.95,1.328-.566,1.872-.944-.378-1.746,1.066-6.527,2.772-9.135l1.459.7c.116-.348.393-.736.295-.954-.673-1.493-2-2.927-.156-4.5.235-3.7,1.993-7.03,3.562-10.141a48.927,48.927,0,0,0,2.925-8.322c.8-2.679,3.233-4.642,3.217-7.637C335.758,339.833,335.756,335.364,338.544,332.132Zm29.754-11.8c-.944-1.057,1.249-.851.144-1.737-1.05-.842-.423-1.95-.739-2.881-.158-.466-.482-.5-.732-.2-.807,1.2.433,2.787-.645,3.839l-1.582.325c.567,1.789,2.628,2.266,3.055,3.932-.7,2.65-2.778,2.171-4.634,2.231-.2.006-.385.392-.579.6.768,1.048,2.1-.16,2.679.512,1.568,2.367-1.459,1.59-1.629,3.535.1-.262,1.261-.35.666.389-.837.667-2.119-.346-2.855.736.81,2.874.07,5.118-2.894,8.771l.746.746c-.393.944-1.736.138-2.1,1.138-.419,1.044.69,1.414.949,2.159-2.955,4.844-2.955,4.844-3.1,7.832l-4.452,3.683c-.766,1.645.948,2.322,1.117,3.384-1.533,1.438-3,3.033-2.89,5.142.084,1.539-.712,2.555-1.153,3.79-1.043,2.912-2.148,5.8-3.134,8.734a1.108,1.108,0,0,0,.836,1.646,20.935,20.935,0,0,0,2.369-4.8A73.312,73.312,0,0,1,352,362.412c1.83-3.647,2.394-7.849,5.114-11.128a11.167,11.167,0,0,0,1.275-3.143,135.875,135.875,0,0,1,7.542-16.944c1.509-3.014,3.757-5.84,3.95-9.44a3.328,3.328,0,0,0-.236-.952Z"/><path d="M376.241,176.663c.206,2.126-2.212,3.991-.621,6.254,1.379.591,1.73-.819,2.771-1.31-.277-3.141,1-5.636,2.526-8.414,1.51-2.744,3.845-4.9,4.981-7.955,1.071-2.879,3.239-5.36,4.995-7.969,1.77-2.628,3.633-5.194,5.445-7.794a67.808,67.808,0,0,1,4.3-6.132c3.91-4.455,7.266-9.318,10.855-14.01,1.863-2.434,4.127-4.536,6.029-7,3.266-4.235,7.374-7.817,10.68-12.025,3.56-4.532,8-8.23,11.582-12.656,8.075-9.981,17.851-18.264,26.667-27.5,1.432-1.5,2.976-2.907,4.415-4.429,3.159-3.34,6.145-7.039,10.695-8.572,1.754-.591.889-2.585,2.708-3.437a13.085,13.085,0,0,0,4.611-3.984c1.24-1.718,3.109-2.815,4.6-4.244,1.789-1.719,3.888-3.28,5.841-5.1,1.96-.262,4.025-.494,6.068-.851.346-.06.6-.656.857-.957-.406-1.005-2.044.177-1.986-1.912a13.473,13.473,0,0,1,6.025-4.758c.53.207.119,1.074.481,1.582.339.475,1.168.739.288,1.52-.96.851.49.935.553,1.542-1.09,1.136-2.656-.009-3.842.656-1.525,1.478,1.138,1.954.629,3.372-1.036,1.007-2.591,1.46-4.087,2.165v1.959c-2.526,2.653-6.746,3.267-8.026,7.165-.609,1.855-3.235,1.386-3.807,3.641-.4,1.574-2.6,1.908-3.984,2.653-.967.226-1.1-.8-1.91-.955-1.19,2.016,1.213,2.421,1.772,3.643-.861.861-1.733,1.734-2.605,2.605l-1.115-1c-.977,1.232-2.944,1.065-3.61,2.559-.353,1.08.439,1.594.981,2.188l-1.547,1.547-1.121-1.018c-.73,2.753-.73,2.753-3,5.138-1.29-.051,0-2.211-2.493-1.857-1.373.67-.286,4.488-3.369,4.524.371.531.732,1.05,1.327,1.9-1.948,1.522-3.4,3.588-5.22,4.95-2.053,1.54-3.058,3.87-5.3,5.361h-3.217c-.047,1.8-2.166,2.562-2.4,4.1-.789,5.18-4.95,7.669-8.328,10.652-1.238,1.093-2.813,1.751-3.377,3.464-.18.547-.376.889-1.025.889-2.746,0-4.024,1.493-4.3,4.133a2.292,2.292,0,0,1-2.4,2.2c-2.279.066-2.961,1.908-3.938,2.961.089,1.891,1.659.779,2.125,1.953-1.316.249-1.287,3.13-3.657,1.59-.147-.1-1.356.8-1.378,1.268a5.37,5.37,0,0,1-2.314,4.355c.483,2.569-1.511,3.782-3.03,5.06-2.021,1.7-3.2,4.044-4.675,6.07a20.405,20.405,0,0,1-6.427,6.205,13.569,13.569,0,0,0-1.879,1.484,6.192,6.192,0,0,1-1.411,5.1c-3.992,5.119-8.159,10.152-11.171,15.963a5.733,5.733,0,0,1-4.906,2.928c-1.291.138-1.7,1.083-2.314,1.513,1.218,3.293-2.608,5.686-1.061,8.54-1.5,1.019-2.769.288-4.084.787-.784,2.812-1.621,5.808-2.449,8.777.409.947,1.783.1,2.144,1.571-.272,1.25-1.881,2.431-.723,5.026l-1.982-1.762c-.922.392.009,1.823-1.227,2.043-1.492.217-1.869-1.3-2.811-1.921l-4.191,2.124c-1.364-1.228-.595-1.973.223-2.722-.62-.747-1.006-1.8-2.347-1.684-1.378.012-.219,1.621-1.3,2.047-2.482-2.756.879-5.907-.963-8.692,1.118-.821,1.963-1.44,2.795-2.05l-1.093-1.215c.791-1.566,1.628-3.236,2.493-4.891.039-.073.337-.011.514-.012Q376.282,175.565,376.241,176.663Z"/><path d="M376.241,176.663q.04-1.1-1.057-1.058c-.3-3.786,2.213-6.546,3.834-9.5,2.7-4.906,6.02-9.474,9.042-14.2,2.234-3.488,5.135-6.7,7.634-10.1,3.395-4.621,7.335-8.8,10.568-13.561,1.908-2.81,4.552-5.122,6.8-7.7,3.17-3.635,5.842-7.728,9.529-10.945,1.908-1.665,3.845-3.361,4.99-5.829a4.443,4.443,0,0,1,3.175-2.426c.788-.163,1.009-1.907,1.859-2.821,8.429-9.065,16.92-18.065,25.728-26.771,5.448-5.385,11.353-10.262,16.908-15.532a158.651,158.651,0,0,1,14-11.863c1.878-1.406,3.391-3.77,5.95-4.235.95,1.042.679,1.847-.152,2.356a66.849,66.849,0,0,0-14.04,11.994c-1.414,1.531-3.49,2.046-4.87,3.671-1.178,1.388-2.329,2.862-4.33,3.519a5.4,5.4,0,0,0-2.927,2.917c-.757,2-2.6,2.761-3.709,4.218a26.9,26.9,0,0,1-4,3.59c-1.914,1.714-2.826,4.519-5.608,5.433-.183,2.653-3.347,2.755-4.105,4.551-.9,2.123-2.948,2.724-4.239,4.273a28.485,28.485,0,0,1-3.808,4.392,58.4,58.4,0,0,0-4.516,4.444c-1.5,1.5-3.009,2.972-4.479,4.49-1.416,1.461-2.551,3.22-3.864,4.678-2.885,3.2-5.2,6.87-8.418,9.822-3.479,3.191-6.189,7.108-9.075,10.869s-5.669,7.707-9.017,10.973c-2.518,2.456-3.454,6.036-6.494,7.919-.207,2.613-2.844,3.595-3.95,5.741a10.242,10.242,0,0,1-4.134,4.669c-1.033.532-1.034,3.336-2,3.669-1.851.638-1.358,1.883-1.877,2.973a10.751,10.751,0,0,1-1.361,2.615,43.259,43.259,0,0,0-7.124,12.375C377.03,176.49,376.542,176.538,376.241,176.663Z"/></svg>